<?xml version="1.0" encoding="UTF-8" standalone="no"?>
<svg
   xmlns:dc="http://purl.org/dc/elements/1.1/"
   xmlns:cc="http://creativecommons.org/ns#"
   xmlns:rdf="http://www.w3.org/1999/02/22-rdf-syntax-ns#"
   xmlns:svg="http://www.w3.org/2000/svg"
   xmlns="http://www.w3.org/2000/svg"
   viewBox="0 0 264 264"
   height="264"
   width="264"
   xml:space="preserve"
   id="svg2"
   version="1.1"><metadata
     id="metadata8"><rdf:RDF><cc:Work
         rdf:about=""><dc:format>image/svg+xml</dc:format><dc:type
           rdf:resource="http://purl.org/dc/dcmitype/StillImage" /></cc:Work></rdf:RDF></metadata><defs
     id="defs6" /><g
     transform="matrix(1.3333333,0,0,-1.3333333,0,264)"
     id="g10"><g
       transform="scale(0.1)"
       id="g12"><path
         id="path14"
         style="fill:#ffffff;fill-opacity:1;fill-rule:nonzero;stroke:none"
         d="M 1979.98,0 H 0 V 1979.98 H 1979.98 V 0" /><path
         id="path16"
         style="fill:#1d337a;fill-opacity:1;fill-rule:nonzero;stroke:none"
         d="M 1979.98,0 H 0 V 989.988 H 1979.98 V 0" /><path
         id="path18"
         style="fill:#1d337a;fill-opacity:1;fill-rule:nonzero;stroke:none"
         d="M 947.121,1703.17 852.016,1258.55 H 736.992 l 95.11,444.62 z m 483.919,-287.1 60.54,166.97 34.84,-166.97 z m 128.38,-157.52 h 106.36 l -92.92,444.62 h -98.11 c -22.11,0 -40.75,-12.82 -49,-32.6 l -172.6,-412.02 h 120.81 l 23.98,66.41 h 147.55 z m -300.27,145.16 c 0.5,117.33 -162.21,123.84 -161.12,176.27 0.35,15.93 15.54,32.9 48.77,37.23 16.47,2.13 61.92,3.84 113.44,-19.89 l 20.15,94.32 c -27.67,10 -63.28,19.65 -107.59,19.65 -113.71,0 -193.702,-60.4 -194.343,-146.97 -0.727,-64 57.143,-99.69 100.653,-121.01 44.86,-21.79 59.89,-35.77 59.67,-55.24 -0.31,-29.82 -35.77,-43.03 -68.79,-43.53 -57.86,-0.9 -91.396,15.64 -118.131,28.1 l -20.879,-97.47 c 26.922,-12.32 76.52,-23.04 127.88,-23.59 120.89,0 199.93,59.69 200.29,152.13 M 782.766,1703.17 596.391,1258.55 H 474.816 l -91.718,354.84 c -5.559,21.81 -10.407,29.84 -27.317,39.06 -27.66,15.02 -73.324,29.07 -113.472,37.81 l 2.714,12.91 h 195.731 c 24.93,0 47.355,-16.59 53.066,-45.31 l 48.446,-257.3 119.66,302.61 h 120.84" /><path
         id="path20"
         style="fill:#ffffff;fill-opacity:1;fill-rule:nonzero;stroke:none"
         d="m 461.254,441.68 c 12.996,-7.668 33.312,-14.328 54.297,-14.328 25.984,0 40.637,12.328 40.637,30.648 0,16.988 -11.325,26.98 -39.641,37.301 -37.305,13 -60.957,32.98 -60.957,64.961 0,36.976 30.644,64.617 79.617,64.617 24.316,0 41.965,-5.328 53.629,-10.988 l -9.66,-33.313 c -8.332,4.332 -23.985,10.66 -44.973,10.66 -25.98,0 -36.973,-13.66 -36.973,-26.976 0,-17.332 12.989,-25.321 42.969,-36.641 38.977,-14.992 57.629,-34.652 57.629,-66.621 0,-36.309 -27.316,-67.289 -84.941,-67.289 -23.985,0 -48.633,6.66 -60.957,13.98 l 9.324,33.989" /><path
         id="path22"
         style="fill:#ffffff;fill-opacity:1;fill-rule:nonzero;stroke:none"
         d="M 757.082,496.641 H 672.473 V 430.68 h 94.601 v -33.641 h -135.57 v 224.512 h 130.57 V 587.91 h -89.601 v -57.961 h 84.609 v -33.308" /><path
         id="path24"
         style="fill:#ffffff;fill-opacity:1;fill-rule:nonzero;stroke:none"
         d="m 960.641,403.699 c -9.661,-4.66 -30.977,-9.988 -58.293,-9.988 -71.282,0 -114.582,44.641 -114.582,112.918 0,73.949 51.629,118.25 120.246,118.25 26.98,0 45.968,-5.328 54.293,-9.66 l -8.657,-32.641 c -10.66,4.66 -25.648,8.66 -43.968,8.66 -45.637,0 -78.614,-28.648 -78.614,-82.609 0,-49.301 28.649,-80.609 78.274,-80.609 16.324,0 33.648,3.332 44.64,8 l 6.661,-32.321" /><path
         id="path26"
         style="fill:#ffffff;fill-opacity:1;fill-rule:nonzero;stroke:none"
         d="m 1032.96,621.551 v -130.91 c 0,-43.969 18.32,-64.282 45.97,-64.282 29.64,0 47.3,20.313 47.3,64.282 v 130.91 h 40.97 V 493.309 c 0,-69.289 -35.64,-99.93 -89.6,-99.93 -51.97,0 -85.612,28.973 -85.612,99.59 v 128.582 h 40.972" /><path
         id="path28"
         style="fill:#ffffff;fill-opacity:1;fill-rule:nonzero;stroke:none"
         d="m 1251.5,519.289 h 24.32 c 27.66,0 44.65,14.652 44.65,36.973 0,24.316 -16.99,35.976 -43.64,35.976 -13,0 -21.32,-1 -25.33,-2.008 z m -40.62,98.93 c 15.64,3 38.3,4.992 61.95,4.992 32.31,0 53.97,-5.32 69.28,-17.992 12.32,-10.321 19.32,-25.969 19.32,-45.297 0,-28.973 -19.65,-48.621 -40.96,-55.961 v -0.992 c 16.31,-6 25.98,-21.649 31.31,-43.297 7.32,-27.992 13.32,-53.973 17.65,-62.633 h -41.97 c -3.34,6.66 -9,24.981 -15,52.961 -6.66,29.32 -16.98,38.641 -40.29,39.309 h -20.67 v -92.27 h -40.62 v 221.18" /><path
         id="path30"
         style="fill:#ffffff;fill-opacity:1;fill-rule:nonzero;stroke:none"
         d="m 1522.69,496.641 h -84.61 V 430.68 h 94.6 v -33.641 h -135.57 v 224.512 h 130.57 V 587.91 h -89.6 v -57.961 h 84.61 v -33.308" /></g></g></svg>