<?xml version="1.0" encoding="UTF-8" standalone="no"?>
<svg
   xmlns:dc="http://purl.org/dc/elements/1.1/"
   xmlns:cc="http://creativecommons.org/ns#"
   xmlns:rdf="http://www.w3.org/1999/02/22-rdf-syntax-ns#"
   xmlns:svg="http://www.w3.org/2000/svg"
   xmlns="http://www.w3.org/2000/svg"
   viewBox="0 0 265.02667 129.48"
   height="129.48"
   width="265.02667"
   xml:space="preserve"
   id="svg2"
   version="1.1"><metadata
     id="metadata8"><rdf:RDF><cc:Work
         rdf:about=""><dc:format>image/svg+xml</dc:format><dc:type
           rdf:resource="http://purl.org/dc/dcmitype/StillImage" /></cc:Work></rdf:RDF></metadata><defs
     id="defs6" /><g
     transform="matrix(1.3333333,0,0,-1.3333333,0,129.48)"
     id="g10"><g
       transform="scale(0.1)"
       id="g12"><path
         id="path14"
         style="fill:#981734;fill-opacity:1;fill-rule:nonzero;stroke:none"
         d="m 686.977,724.668 h 937.343 c 94.16,-0.129 172.48,-29.875 238.64,-90.859 65.09,-60.321 96.92,-132.157 97.9,-219.844 l 13.44,0.129 -13.44,0.125 c -0.98,-85.867 -32.75,-156.903 -97.95,-218.172 l 0.05,0.058 c -66.21,-61.027 -144.58,-91.613 -238.64,-91.718 H 686.977 c -7.414,0 -13.426,-6.0081 -13.426,-13.43 0,-7.4101 6.012,-13.4179 13.426,-13.4179 h 937.343 c 99.97,-0.1172 186.21,33.3989 256.88,98.8479 l 0.05,0.058 c 69.94,65.215 105.75,144.934 106.49,237.52 v 0.254 c -0.74,94.23 -36.49,174.863 -106.55,239.316 -70.72,65.481 -156.99,98.106 -256.87,97.981 H 686.977 c -7.414,0 -13.426,-6.008 -13.426,-13.418 0,-7.426 6.012,-13.43 13.426,-13.43 z m 0,0 h 937.343 c 94.16,-0.129 172.48,-29.875 238.64,-90.859 65.09,-60.321 96.92,-132.157 97.9,-219.844 l 13.44,0.129 -13.44,0.125 c -0.98,-85.867 -32.75,-156.903 -97.95,-218.172 l 0.05,0.058 c -66.21,-61.027 -144.58,-91.613 -238.64,-91.718 H 686.977 c -7.414,0 -13.426,-6.0081 -13.426,-13.43 0,-7.4101 6.012,-13.4179 13.426,-13.4179 h 937.343 c 99.97,-0.1172 186.21,33.3989 256.88,98.8479 l 0.05,0.058 c 69.94,65.215 105.75,144.934 106.49,237.52 v 0.254 c -0.74,94.23 -36.49,174.863 -106.55,239.316 -70.72,65.481 -156.99,98.106 -256.87,97.981 H 686.977 c -7.414,0 -13.426,-6.008 -13.426,-13.418 0,-7.426 6.012,-13.43 13.426,-13.43" /><path
         id="path16"
         style="fill:#981734;fill-opacity:1;fill-rule:evenodd;stroke:none"
         d="M 603.809,732.031 C 657.523,700.84 699.973,658.391 731.152,605.539 762.344,551.828 777.941,492.063 778.805,427.09 777.941,361.242 762.344,301.477 731.152,248.625 699.973,195.781 657.523,153.34 603.809,121.27 550.961,90.0977 492.063,74.5039 425.355,73.6328 360.383,74.5039 300.605,90.0977 247.758,121.27 194.055,153.34 151.602,195.781 121.281,248.625 89.2227,301.477 73.6367,360.383 72.7695,427.09 c 0.8672,64.973 16.4532,124.738 48.5115,178.449 30.321,52.852 72.774,95.301 126.477,126.492 52.847,31.172 112.625,47.649 177.597,48.504 65.84,-0.855 125.606,-17.332 178.454,-48.504 M 425.355,852.441 C 346.52,851.574 274.621,832.52 210.512,794.395 147.266,756.281 97.0234,705.164 58.043,641.934 19.9219,577.813 0.871094,505.918 0,427.09 0.871094,348.254 19.9219,276.348 58.043,212.246 97.0234,148.137 147.266,97.0234 210.512,58.0391 274.621,20.7813 346.52,1.73828 425.355,0 c 79.7,0.859375 151.602,19.9219 215.711,58.0391 64.102,38.9843 115.215,90.0979 153.332,154.2069 37.254,64.102 57.176,136.008 58.047,214.844 -0.871,78.828 -19.929,150.723 -58.047,214.844 -38.117,63.23 -89.23,114.347 -153.332,152.461 -64.109,38.125 -136.011,57.179 -215.711,58.046" /><path
         id="path18"
         style="fill:#981734;fill-opacity:1;fill-rule:nonzero;stroke:none"
         d="m 959.863,550.098 h 29.453 l 31.184,-85.75 32.06,85.75 h 28.59 l -48.51,-122.149 h -23.4 l -49.377,122.149" /><path
         id="path20"
         style="fill:#981734;fill-opacity:1;fill-rule:nonzero;stroke:none"
         d="m 1298.59,521.516 h 26.86 V 428.82 h -26.86 z m -0.87,33.789 h 27.73 v -23.399 h -27.73 z m -83.17,-33.789 h 26 v -18.203 c 2.6,6.062 6.93,11.269 11.25,14.734 4.34,4.328 10.4,6.066 18.2,5.207 V 495.52 h -0.86 c -9.55,0 -16.47,-2.598 -20.8,-7.805 -5.19,-5.184 -7.79,-13.856 -7.79,-25.106 V 428.82 h -26 z m -56.3,-38.985 c -0.87,6.063 -2.6,10.391 -6.08,14.715 -3.46,3.477 -7.79,5.207 -12.99,5.207 -6.05,0 -10.39,-1.73 -13.85,-5.207 -3.47,-4.324 -6.07,-8.652 -6.93,-14.715 z m -17.33,-56.32 c -6.06,0 -13.01,1.738 -19.06,4.336 -6.06,1.73 -11.26,5.195 -15.59,9.531 -4.33,4.328 -6.93,8.672 -9.53,14.727 -2.6,6.062 -4.33,12.988 -4.33,19.933 0,6.914 0.86,12.977 3.45,19.063 2.61,6.062 5.21,11.25 9.55,15.574 4.32,4.348 8.65,7.805 14.72,10.41 6.07,2.59 12.12,3.469 19.05,3.469 7.81,0 13.87,-1.738 19.93,-4.348 6.07,-2.586 10.4,-6.062 13.86,-11.25 3.47,-4.343 6.06,-9.531 8.67,-15.593 1.72,-6.067 2.6,-13 2.6,-19.063 l -0.88,-3.469 v -3.465 h -64.1 c 0.87,-6.066 3.46,-10.402 7.79,-13.867 4.34,-2.59 8.67,-4.328 14.73,-4.328 4.34,0 7.79,0.879 12.13,2.609 2.61,0.86 6.07,3.458 10.39,6.922 l 14.73,-12.996 c -4.32,-6.066 -9.52,-10.39 -15.59,-12.988 -6.06,-3.469 -13.87,-5.207 -22.52,-5.207" /><path
         id="path22"
         style="fill:#981734;fill-opacity:1;fill-rule:nonzero;stroke:none"
         d="m 1406.88,427.09 c -9.53,0 -18.2,1.73 -27.72,5.187 -8.67,2.606 -16.46,7.801 -24.26,14.735 l 16.45,18.183 c 5.2,-4.328 10.39,-7.793 16.47,-10.39 6.06,-2.606 12.13,-4.325 19.06,-4.325 6.05,0 10.39,0.86 12.99,3.458 2.59,1.726 4.33,4.343 4.33,7.792 v 5.204 l -4.33,3.468 -6.94,3.457 -12.98,4.344 -16.47,4.328 -12.99,6.922 -7.79,10.41 c -1.74,4.328 -2.61,8.653 -2.61,14.719 v 0.867 l 2.61,14.727 c 2.6,4.328 5.19,8.652 9.52,11.262 3.47,3.464 7.8,6.062 13,7.8 5.19,1.731 11.25,2.59 17.32,2.59 8.67,0 16.47,-1.73 24.26,-4.328 7.79,-2.598 14.73,-6.062 20.79,-11.258 l -13.86,-19.922 -16.46,8.653 c -5.2,2.605 -10.39,3.465 -15.59,3.465 -5.21,0 -8.67,-0.86 -11.27,-3.465 -2.59,-1.719 -4.33,-4.328 -4.33,-6.926 v -0.867 l 1.74,-5.196 3.47,-3.468 8.66,-3.465 12.98,-3.457 16.47,-6.074 c 4.33,-1.719 8.66,-4.336 12.13,-6.926 l 6.93,-9.531 c 1.73,-4.325 2.6,-8.661 2.6,-13.868 v -0.847 c 0,-6.067 -0.87,-11.27 -3.47,-15.598 -1.73,-4.344 -4.32,-8.672 -8.66,-12.129 -4.34,-2.605 -8.66,-5.203 -14.73,-6.933 -5.19,-1.739 -11.27,-2.598 -17.32,-2.598" /><path
         id="path24"
         style="fill:#981734;fill-opacity:1;fill-rule:nonzero;stroke:none"
         d="m 1484.84,521.516 h 26.86 V 428.82 h -26.86 z m -0.87,33.789 h 27.73 v -23.399 h -27.73 v 23.399" /><path
         id="path26"
         style="fill:#981734;fill-opacity:1;fill-rule:nonzero;stroke:none"
         d="m 1678.89,521.516 h 26 v -13 l 5.19,5.207 6.06,5.183 6.93,3.469 8.67,0.879 c 10.39,0 18.19,-3.469 23.39,-9.531 6.07,-6.067 8.66,-13.86 8.66,-25.129 V 428.82 h -26.85 v 51.973 c 0,6.062 -0.87,10.391 -3.46,13.867 -2.62,2.586 -6.93,4.324 -12.14,4.324 -5.2,0 -9.52,-1.738 -12.13,-4.324 -2.6,-3.476 -4.32,-7.805 -4.32,-13.867 V 428.82 h -26 v 92.696 m -83.16,-63.235 9.53,1.719 c 2.6,0.867 4.33,1.73 6.93,4.348 1.73,1.718 3.46,4.324 4.33,6.914 0.87,2.597 1.74,5.203 1.74,8.672 l -1.74,8.66 c -0.87,2.59 -2.6,5.207 -4.33,6.926 l -6.93,4.343 -9.53,1.731 -8.66,-1.731 -6.93,-4.343 c -2.6,-1.719 -4.34,-4.336 -5.19,-6.926 l -1.74,-8.66 c 0,-6.934 2.59,-12.141 6.93,-15.586 4.32,-4.348 9.53,-6.067 15.59,-6.067 z m -2.6,-57.195 -21.66,2.617 c -7.79,0.86 -13.86,3.465 -19.92,6.922 l 9.53,19.922 14.72,-6.922 16.46,-1.738 c 8.66,0 15.6,1.738 19.93,6.062 4.33,4.328 6.07,10.391 6.07,19.063 v 4.328 c -3.47,-4.328 -7.81,-8.652 -12.14,-11.262 -4.33,-2.598 -10.39,-3.457 -18.19,-3.457 -5.2,0 -10.39,0.859 -15.59,2.59 -4.33,1.738 -8.66,4.336 -13,8.66 -3.46,3.469 -6.05,7.793 -8.66,12.996 -2.6,6.067 -3.47,12.133 -3.47,19.067 0,6.921 0.87,12.988 3.47,18.191 2.61,6.066 5.2,10.391 8.66,13.859 4.34,4.336 8.67,6.922 13.87,8.661 l 14.72,2.609 c 7.8,0 13.86,-1.738 18.19,-4.348 4.33,-2.586 8.67,-5.183 12.14,-9.531 v 12.141 h 25.98 v -71.907 c 0,-16.453 -3.47,-28.582 -11.26,-36.375 -4.33,-4.347 -10.4,-7.804 -16.46,-9.531 l -23.39,-2.617" /><path
         id="path28"
         style="fill:#981734;fill-opacity:1;fill-rule:nonzero;stroke:none"
         d="m 1027.43,275.488 c -9.52,0 -18.19,1.731 -27.723,5.188 -8.66,2.605 -16.449,7.801 -24.246,14.734 l 16.453,18.184 c 5.199,-4.324 10.396,-7.793 16.466,-10.391 6.06,-2.605 12.12,-4.324 19.05,-4.324 6.07,0 10.4,0.859 13,3.457 2.6,1.727 4.33,4.336 4.33,7.793 v 5.203 l -4.33,3.469 -6.93,3.457 -13,4.344 -16.45,4.328 -13.003,6.922 -7.789,10.402 c -1.738,4.336 -2.602,8.66 -2.602,14.726 v 0.868 l 2.602,14.726 c 2.594,4.328 5.195,8.653 9.527,11.262 3.465,3.465 7.795,6.062 12.985,7.801 5.21,1.73 11.27,2.59 17.33,2.59 8.66,0 16.45,-1.731 24.26,-4.329 7.8,-2.597 14.73,-6.062 20.79,-11.269 l -13.86,-19.922 -16.46,8.66 c -5.19,2.61 -10.4,3.469 -15.6,3.469 -5.19,0 -8.66,-0.859 -11.25,-3.469 -2.6,-1.715 -4.34,-4.324 -4.34,-6.922 v -0.879 l 1.74,-5.183 3.46,-3.469 8.66,-3.465 13,-3.457 16.46,-6.074 c 4.33,-1.719 8.66,-4.336 12.13,-6.926 l 6.93,-9.531 c 1.73,-4.336 2.59,-8.66 2.59,-13.867 v -0.86 c 0,-6.062 -0.86,-11.257 -3.46,-15.593 -1.74,-4.336 -4.34,-8.664 -8.66,-12.121 -4.33,-2.606 -8.67,-5.204 -14.73,-6.934 -5.21,-1.738 -11.26,-2.598 -17.33,-2.598" /><path
         id="path30"
         style="fill:#981734;fill-opacity:1;fill-rule:nonzero;stroke:none"
         d="m 1272.59,274.609 c -6.92,0 -13,1.739 -19.05,4.329 -6.06,2.617 -11.26,6.082 -15.59,10.41 -4.33,4.324 -6.93,8.66 -9.53,14.715 -2.6,6.066 -4.33,13.007 -4.33,19.062 0,6.926 1.73,12.988 4.33,19.074 2.6,6.055 5.2,11.25 9.53,15.574 4.33,4.344 9.53,7.793 15.59,10.411 6.05,2.589 12.13,3.468 19.92,3.468 8.67,0 15.6,-1.738 21.66,-4.347 6.06,-2.598 10.39,-6.063 14.73,-11.25 l -15.6,-17.332 c -2.59,3.476 -6.06,6.062 -9.52,7.8 -2.6,1.731 -6.93,2.59 -12.14,2.59 l -8.66,-1.73 -6.92,-6.063 -5.21,-7.793 -1.73,-9.535 v -0.867 c 0,-3.465 0.87,-6.934 1.73,-9.531 0.87,-3.465 2.6,-6.055 5.21,-8.653 1.72,-2.605 4.32,-4.343 6.92,-5.203 2.6,-0.859 6.07,-1.73 10.39,-1.73 4.35,0 7.81,0.871 11.27,2.59 l 9.53,6.941 15.59,-15.594 c -4.33,-4.336 -9.53,-8.664 -15.59,-12.129 -6.06,-3.468 -12.99,-5.207 -22.53,-5.207 m -103.95,56.321 c -0.86,6.062 -2.6,10.39 -6.06,14.715 -3.47,3.468 -7.8,5.207 -13.01,5.207 -6.05,0 -10.39,-1.739 -13.85,-5.207 -3.47,-4.325 -6.07,-8.653 -6.93,-14.715 z m -17.33,-56.321 c -6.06,0 -12.99,1.739 -19.06,4.329 -6.05,1.738 -11.26,5.203 -15.59,9.539 -4.33,4.328 -6.93,8.664 -9.53,14.726 -2.59,6.067 -4.33,12.988 -4.33,19.922 0,6.926 0.87,12.988 3.47,19.074 2.6,6.055 5.2,11.25 9.53,15.574 4.33,4.344 8.66,7.793 14.72,10.411 6.07,2.589 12.12,3.468 19.05,3.468 7.81,0 13.87,-1.738 19.94,-4.347 6.06,-2.598 10.4,-6.063 13.85,-11.25 3.47,-4.344 6.08,-9.532 8.68,-15.594 1.71,-6.066 2.59,-13 2.59,-19.063 l -0.88,-3.468 v -3.465 h -64.1 c 0.87,-6.067 3.48,-10.402 7.8,-13.867 4.33,-2.59 8.67,-4.328 14.72,-4.328 4.35,0 7.81,0.871 12.13,2.609 2.61,0.859 6.08,3.457 10.41,6.922 l 14.73,-12.996 c -4.34,-6.067 -9.53,-10.391 -15.61,-12.989 -6.05,-3.468 -13.85,-5.207 -22.52,-5.207" /><path
         id="path32"
         style="fill:#981734;fill-opacity:1;fill-rule:nonzero;stroke:none"
         d="m 1373.95,275.488 c -9.52,0 -17.32,3.45 -23.38,9.532 -5.2,6.066 -7.8,13.859 -7.8,25.109 v 59.785 h 25.98 V 317.93 c 0,-6.063 1.74,-10.391 4.34,-13.867 2.6,-2.586 6.93,-4.325 12.13,-4.325 4.33,0 8.66,1.739 12.13,4.325 2.6,3.476 4.33,7.804 4.33,13.867 v 51.984 h 25.98 v -92.695 h -25.98 v 12.988 l -5.21,-5.187 -6.06,-5.204 -6.93,-3.468 -9.53,-0.86" /><path
         id="path34"
         style="fill:#981734;fill-opacity:1;fill-rule:nonzero;stroke:none"
         d="m 1722.21,298.008 c 3.47,0 6.93,0.871 9.53,1.73 l 6.93,5.203 c 1.72,2.598 3.46,5.188 4.32,7.793 l 1.74,10.391 v 0.867 l -1.74,10.403 -4.32,7.804 -6.93,5.184 c -2.6,0.871 -6.06,1.73 -9.53,1.73 l -8.67,-1.73 -6.93,-5.184 -5.2,-7.804 c -0.86,-2.606 -1.73,-6.063 -1.73,-10.403 v -0.867 l 1.73,-10.391 c 0.88,-2.605 2.61,-5.195 5.2,-7.793 l 6.93,-5.203 8.67,-1.73 m -6.07,-22.52 c -6.06,0 -11.25,0.86 -16.46,3.45 -4.32,1.738 -8.66,4.343 -13,8.671 -4.32,4.336 -6.92,9.532 -9.53,15.594 -2.6,6.067 -3.45,12.129 -3.45,19.922 v 0.867 c 0,7.797 0.85,14.731 3.45,20.793 2.61,6.067 5.21,10.391 9.53,14.719 3.48,4.344 7.81,6.941 13,8.68 5.21,2.589 10.4,3.468 16.46,3.468 6.93,0 13,-1.738 17.34,-4.347 4.32,-2.598 8.65,-5.188 11.25,-9.532 v 45.93 h 25.99 V 277.219 h -25.99 v 12.988 c -2.6,-4.328 -6.93,-7.793 -11.25,-10.391 -4.34,-2.597 -10.41,-4.328 -17.34,-4.328 z m -98.75,55.442 c -0.87,6.062 -2.6,10.39 -6.06,14.715 -3.47,3.468 -7.8,5.207 -13.01,5.207 -6.06,0 -10.39,-1.739 -13.86,-5.207 -3.46,-4.325 -6.06,-8.653 -6.92,-14.715 z m -17.33,-56.321 c -6.07,0 -12.99,1.739 -19.06,4.329 -6.05,1.738 -11.27,5.203 -15.59,9.539 -4.33,4.328 -6.93,8.664 -9.53,14.726 -2.59,6.067 -4.33,12.988 -4.33,19.922 0,6.926 0.86,12.988 3.45,19.074 2.61,6.055 5.21,11.25 9.54,15.574 4.33,4.344 8.67,7.793 14.72,10.411 6.08,2.589 12.13,3.468 19.06,3.468 7.8,0 13.87,-1.738 19.94,-4.347 6.06,-2.598 10.39,-6.063 13.85,-11.25 3.46,-4.344 6.07,-9.532 8.66,-15.594 1.73,-6.066 2.61,-13 2.61,-19.063 l -0.88,-3.468 v -3.465 h -64.1 c 0.86,-6.067 3.47,-10.402 7.8,-13.867 4.33,-2.59 8.67,-4.328 14.72,-4.328 4.34,0 7.81,0.871 12.13,2.609 2.6,0.859 6.07,3.457 10.4,6.922 l 14.73,-12.996 c -4.34,-6.067 -9.53,-10.391 -15.6,-12.989 -6.06,-3.468 -13.85,-5.207 -22.52,-5.207 z m -130.82,95.305 h 26 v -18.203 c 2.6,6.062 6.93,11.269 11.26,14.734 4.32,4.328 10.4,6.067 18.19,5.207 v -27.734 h -0.86 c -9.53,0 -16.46,-2.598 -20.8,-7.805 -5.19,-5.183 -7.79,-13.855 -7.79,-25.105 v -33.789 h -26 v 92.695" /><path
         id="path36"
         style="fill:#981734;fill-opacity:1;fill-rule:evenodd;stroke:none"
         d="m 1815.77,763.203 h 37.24 v -8.652 h -12.99 v -35.516 h -10.39 v 35.516 h -13.86 v 8.652 m 92.69,0 v -44.168 h -10.39 v 28.574 l -11.27,-19.043 h -1.72 l -11.27,19.043 v -28.574 h -10.39 v 44.168 h 11.25 l 12.13,-19.051 11.27,19.051 h 10.39" /><path
         id="path38"
         style="fill:#000000;fill-opacity:1;fill-rule:evenodd;stroke:none"
         d="m 678.316,632.402 h -32.054 v -32.929 h 32.054 z m -32.054,83.157 h 32.054 v -32.043 h -32.054 z m 83.168,84.898 h -32.926 v 32.063 h 32.926 z m 64.105,66.711 h 63.238 v 34.648 H 793.535 V 800.457 H 729.43 v -32.91 H 674.848 V 745.02 H 646.262 V 715.559 H 611.605 V 664.445 H 578.691 V 632.402 H 557.035 V 599.473 H 532.773 C 484.262,527.578 446.145,456.543 418.422,384.629 356.047,472.141 298.004,524.113 244.297,541.438 c -14.727,4.335 -25.125,0.867 -31.192,-12.122 -6.058,-12.996 -0.863,-29.453 17.329,-48.523 54.578,-59.766 104.82,-144.68 150.738,-252.961 6.93,-17.324 22.523,-26.855 47.641,-29.441 23.394,-1.739 38.992,6.922 45.917,25.984 33.786,89.219 72.774,165.461 117.825,230.43 v 37.258 h 25.984 v 32.05 h 27.723 v 38.985 h 32.054 v 36.375 h 32.914 v 32.929 h 25.997 v 39.844 h 28.586 v 26.856 h 27.722 v 68.445 h 32.047 v 32.91 h 37.254 v 32.922 h -37.254 v -32.922 h -32.047 v -32.91 H 761.477 V 735.48 H 729.43 v 32.067 h 32.047 v 99.621 h 32.058" /><path
         id="path40"
         style="fill:#9f1645;fill-opacity:1;fill-rule:nonzero;stroke:none"
         d="m 793.535,833.379 h 32.047 v 33.789 h -32.047 v -33.789" /><path
         id="path42"
         style="fill:#ffffff;fill-opacity:1;fill-rule:nonzero;stroke:none"
         d="m 646.262,683.516 h 32.054 v 32.043 h -32.054 v -32.043" /><path
         id="path44"
         style="fill:#981734;fill-opacity:1;fill-rule:nonzero;stroke:none"
         d="m 893.156,867.168 h 34.653 v 34.648 h -34.653 v -34.648" /><path
         id="path46"
         style="fill:#000000;fill-opacity:1;fill-rule:nonzero;stroke:none"
         d="m 859.367,901.816 h 34.6563 v 34.6484 H 859.367 Z" /><path
         id="path48"
         style="fill:#981734;fill-opacity:1;fill-rule:nonzero;stroke:none"
         d="m 893.156,936.465 h 34.653 v 34.656 h -34.653 v -34.656" /></g></g></svg>