<svg id="Layer_1" data-name="Layer 1" xmlns="http://www.w3.org/2000/svg" viewBox="0 0 783 253"><defs><style>.cls-1{isolation:isolate;}.cls-2{fill:#77bc1f;}.cls-3{fill:#fff;}.cls-4{fill:#313c3f;}.cls-5{fill:#a0a2a2;}</style></defs><title>SSL-Secure-encryption</title><g id="Artboard"><g id="_" data-name="" class="cls-1"><g class="cls-1"><path class="cls-2" d="M169,84.39a23.75,23.75,0,0,1,17,6.91,22.32,22.32,0,0,1,7.2,16.71V228.39A22.32,22.32,0,0,1,186,245.1,23.75,23.75,0,0,1,169,252H25A23.75,23.75,0,0,1,8,245.1a22.32,22.32,0,0,1-7.2-16.71V108A22.32,22.32,0,0,1,8,91.3a23.75,23.75,0,0,1,17-6.91H36.81V60.2A58.93,58.93,0,0,1,44.87,30,59.84,59.84,0,0,1,66.76,8.07a60.76,60.76,0,0,1,60.48,0A59.84,59.84,0,0,1,149.13,30a59,59,0,0,1,8.06,30.24V84.39Zm-34.85,0V60.2a36,36,0,0,0-5-18.43,37.39,37.39,0,0,0-13.68-13.68,36.22,36.22,0,0,0-36.86,0A37.39,37.39,0,0,0,64.89,41.77a36,36,0,0,0-5,18.43V84.39ZM97,192.39a24,24,0,0,0,17-41.18,23.65,23.65,0,0,0-34,0,24.19,24.19,0,0,0,17,41.18Z"/></g></g><circle id="Oval-Copy" class="cls-2" cx="117" cy="189" r="59"/><g id="check---material-copy" class="cls-1"><g class="cls-1"><path class="cls-3" d="M77,189.66,140.5,126l8.5,8.49-72,72L43.59,173.1l8.35-8.5Z"/></g></g><g id="SECURE-SSL-ENCRYPTIO" class="cls-1"><g class="cls-1"><path class="cls-4" d="M234.71,149.89s11.67,10.65,24.62,10.65c5.19,0,10.8-2,10.8-8.2,0-12.24-46.36-11.81-46.36-43.49,0-19,16-31.54,36.43-31.54,22.17,0,33.12,11.67,33.12,11.67l-10.66,20.59s-10.37-9.07-22.75-9.07c-5.18,0-10.94,2.3-10.94,8.06,0,13,46.36,10.66,46.36,43.2,0,17.14-13.1,32-36.28,32-24.19,0-37.59-14.69-37.59-14.69Z"/><path class="cls-4" d="M312.61,79h64.51v21.6H337.81v18.72h31.4V141h-31.4V160.4h41.33V182H312.61Z"/><path class="cls-4" d="M444.23,77.31c25.49,0,38.59,14.55,38.59,14.55l-11.66,19s-11.52-10.52-25.78-10.52c-19.73,0-29.09,14.55-29.09,29.38,0,15.26,10.08,31,29.09,31,15.55,0,27.36-12.67,27.36-12.67l13,18.43s-14.54,17.28-41.47,17.28c-32.26,0-54-22.9-54-53.43C390.23,100.35,413.27,77.31,444.23,77.31Z"/><path class="cls-4" d="M499.52,79h25.2v65.09c0,10.8,7.06,16.56,17.86,16.56s17.85-5.76,17.85-16.56V79h25.2v65.09c0,23.18-17,39.6-42.91,39.6-26.21,0-43.2-16.42-43.2-39.6Z"/><path class="cls-4" d="M608.39,79h35.85c10.51,0,15.55.72,20,2.45,11.66,4.46,19,15,19,30,0,10.94-5.18,22.9-15.4,28.08v.29a58.17,58.17,0,0,1,3.88,6.19l20,36H663.68l-18.29-34.7H633.58V182H608.39Zm36.14,46.66c8.06,0,13.1-4.47,13.1-12.67,0-7.78-2.88-12.39-15.55-12.39h-8.5V125.7Z"/><path class="cls-4" d="M706.59,79h64.52v21.6H731.79v18.72h31.4V141h-31.4V160.4h41.33V182H706.59Z"/></g><g class="cls-1"><path class="cls-5" d="M235.27,233.7s5.26,4.81,11.11,4.81c2.34,0,4.88-.91,4.88-3.71,0-5.52-20.93-5.33-20.93-19.63,0-8.58,7.21-14.24,16.44-14.24,10,0,15,5.27,15,5.27l-4.81,9.3s-4.68-4.1-10.27-4.1c-2.34,0-4.94,1-4.94,3.64,0,5.85,20.93,4.81,20.93,19.5,0,7.74-5.91,14.43-16.38,14.43a24,24,0,0,1-17-6.63Z"/><path class="cls-5" d="M273,233.7s5.27,4.81,11.12,4.81c2.34,0,4.88-.91,4.88-3.71,0-5.52-20.94-5.33-20.94-19.63,0-8.58,7.22-14.24,16.45-14.24,10,0,14.95,5.27,14.95,5.27l-4.81,9.3s-4.68-4.1-10.27-4.1c-2.34,0-4.94,1-4.94,3.64,0,5.85,20.93,4.81,20.93,19.5,0,7.74-5.91,14.43-16.38,14.43a24,24,0,0,1-17-6.63Z"/><path class="cls-5" d="M308.13,201.72H319.5v36.72h19v9.75H308.13Z"/><path class="cls-5" d="M359.61,201.72h29.12v9.75H371v8.45h14.17v9.75H371v8.77h18.66v9.75h-30Z"/><path class="cls-5" d="M397.83,201.72h11.5l12.87,21.71a82.54,82.54,0,0,1,3.9,7.93h.13s-.52-5-.52-7.93V201.72h11.38v46.47H425.65l-12.94-21.64a83.78,83.78,0,0,1-3.9-7.93h-.13s.52,5,.52,7.93v21.64H397.83Z"/><path class="cls-5" d="M469.2,200.93c11.5,0,17.42,6.57,17.42,6.57l-5.27,8.58s-5.2-4.74-11.63-4.74c-8.91,0-13.13,6.56-13.13,13.26,0,6.89,4.55,14,13.13,14,7,0,12.35-5.72,12.35-5.72l5.85,8.32A25.52,25.52,0,0,1,469.2,249c-14.56,0-24.38-10.33-24.38-24.11C444.82,211.34,455.22,200.93,469.2,200.93Z"/><path class="cls-5" d="M494.8,201.72H511c4.75,0,7,.32,9,1.1,5.26,2,8.58,6.76,8.58,13.52,0,4.94-2.34,10.34-7,12.68v.13a26.47,26.47,0,0,1,1.76,2.79l9,16.25H519.77l-8.26-15.66h-5.33v15.66H494.8Zm16.32,21.06c3.64,0,5.92-2,5.92-5.72,0-3.51-1.3-5.59-7-5.59h-3.84v11.31Z"/><path class="cls-5" d="M547.91,229.15l-15.34-27.43h12.94l5.26,11.18c1.5,3.18,2.8,6.69,2.8,6.69h.13s1.3-3.51,2.79-6.69l5.2-11.18h12.94l-15.34,27.43v19H547.91Z"/><path class="cls-5" d="M579.82,201.72h19.31c9,0,15.15,6.62,15.15,16s-6.11,16.12-15.15,16.12H591.2v14.36H579.82Zm17,22.36c4,0,5.92-2.67,5.92-6.37s-2-6.24-5.72-6.24H591.2v12.61Z"/><path class="cls-5" d="M629.94,211.47H615.83v-9.75h39.59v9.75H641.31v36.72H629.94Z"/><path class="cls-5" d="M661.14,201.72h11.37v46.47H661.14Z"/><path class="cls-5" d="M704.56,200.93c14,0,24.31,10.41,24.31,23.73,0,13.65-10.27,24.31-24.31,24.31s-24.31-10.66-24.31-24.31C680.25,211.34,690.52,200.93,704.56,200.93Zm0,37.64c7,0,12.54-6,12.54-13.91,0-7.6-5.59-13.32-12.54-13.32S692,217.06,692,224.66C692,232.59,697.6,238.57,704.56,238.57Z"/><path class="cls-5" d="M736.6,201.72h11.51L761,223.43a82.54,82.54,0,0,1,3.9,7.93H765s-.52-5-.52-7.93V201.72h11.37v46.47H764.42l-12.93-21.64a83.78,83.78,0,0,1-3.9-7.93h-.13s.52,5,.52,7.93v21.64H736.6Z"/></g></g></g></svg>