<svg xmlns="http://www.w3.org/2000/svg" width="400" height="155">
  <title>
    COMPLIANT + Rectangle 3 + Letters + DSS
  </title>
  <g fill-rule="evenodd">
    <path fill="#225e63" d="M273.126 89.272l3.95 1.194q-.4 1.66-1.25 2.775-.85 1.12-2.128 1.69-1.264.56-3.222.56-2.38 0-3.892-.68-1.498-.7-2.598-2.44-1.092-1.74-1.092-4.46 0-3.62 1.92-5.56 1.934-1.95 5.45-1.95 2.755 0 4.33 1.12 1.584 1.12 2.35 3.42l-3.98.88q-.202-.67-.436-.97-.375-.52-.92-.79-.547-.28-1.225-.28-1.53 0-2.348 1.23-.617.92-.617 2.88 0 2.43.74 3.33.742.9 2.076.9 1.295 0 1.95-.72.67-.72.968-2.1zm5.562-1.324q0-3.57 1.99-5.56 1.988-1.99 5.54-1.99 3.642 0 5.615 1.96 1.974 1.95 1.974 5.476 0 2.558-.866 4.196-.85 1.63-2.48 2.55-1.62.906-4.04.906-2.46 0-4.08-.78-1.6-.78-2.61-2.488-1-1.7-1-4.26zm4.505.02q0 2.208.816 3.174.82.965 2.23.965 1.45 0 2.25-.952.79-.952.79-3.393 0-2.06-.84-3.003-.83-.96-2.25-.96-1.37 0-2.19.96-.83.95-.83 3.19zm13.003-7.322h5.928l2.29 8.874 2.277-8.874h5.91V95.23h-3.68V84.11l-2.85 11.12h-3.33l-2.84-11.12v11.12h-3.7V80.647zm19.248 0h7.493q2.447 0 3.66 1.164 1.225 1.163 1.225 3.308 0 2.207-1.334 3.447-1.324 1.24-4.048 1.24h-2.468v5.414h-4.527V80.63zm4.528 6.217h1.104q1.303 0 1.83-.447.528-.457.528-1.163 0-.687-.458-1.164-.457-.48-1.72-.48h-1.288v3.25zm10.217-6.217h4.5V91.64h7.03v3.59h-11.54V80.647zm13.78 0h4.51V95.23h-4.52V80.647zm16.71 12.177h-5.14l-.71 2.408h-4.61l5.48-14.58h4.91l5.48 14.59h-4.71l-.72-2.4zm-.95-3.153l-1.62-5.242-1.61 5.242h3.21zm7.84-9.024h4.21l5.49 8.068v-8.068h4.25V95.23h-4.25l-5.46-8.008v8.01h-4.24V80.645zm15.93 0h13.7v3.602h-4.6V95.23h-4.5V84.25h-4.6v-3.602z" font-family="Arial Black"/>
    <path fill="#225e63" d="M218.863 102.908l13.053-4.114-4.226-9.415c-3.144 3.87-6.24 8.89-8.83 13.52zm-4.447-43.1L188.82 2.784 1.437 13.424l51.912 141.65 99.93-31.498c-6.34-9.136-8.68-19.997-1.34-25.305 8.23-5.94 20.6.93 28.55 10.7 7.63-12.82 29.03-42.41 33.93-49.16z"/>
    <path fill="#fefefe" d="M183.004 43.986c7.843 0 14.202-5.997 14.202-13.395S190.84 17.2 183 17.2c-7.846 0-14.203 5.997-14.203 13.396 0 7.4 6.357 13.396 14.204 13.396zm-11.62 5.81h23.24v60.682h-23.24v-60.68zm-11.475 17.71c.16.097.3.017.3-.174V51.96c0-.196-.14-.43-.31-.522 0 0-3.05-1.987-12.35-2.54-.5-.275-8.6-.316-10.84 0-33.8 2.71-35.05 27.162-35.05 28.28v5.935c0 .725 0 25.726 35.05 27.94 3.42.258 10.13 0 10.84 0 8.07 0 13.66-2.433 13.66-2.433.17-.078.32-.29.32-.484v-14.39c0-.196-.13-.266-.3-.165 0 0-2.51 2.02-13.54 3.09-3.13.35-4.61.19-5.74 0-15.64-2.63-16.39-14.09-16.39-14.09-.02-.19-.04-.5-.04-.69v-4.37c0-.19.02-.5.04-.69 0 0 1.05-12.28 16.38-13.58h5.73c6.77.91 12.2 4.26 12.2 4.26zM37.2 110.236c0 .194.153.35.347.35h22.638c.192 0 .348-.156.348-.343V92.63c0-.186.155-.334.35-.327 0 0 36.137 2.613 36.137-21.646 0-19.142-22.673-21.24-30.137-20.89-.15.01-29.332 0-29.332 0-.19 0-.35.165-.35.352v60.12zm22.933-31.39V62.98h5.538s8.06.364 8.69 5.845c.15.43.11 3.11 0 3.26-1.03 6.448-8.03 6.764-8.03 6.764l-6.18-.01z"/>
    <path fill="#2bbc5d" d="M183.642 139.776c1.89 0 3.335 0 5.723-1.06 8.253-4.338 36.027-72.168 65.322-93.032.17-.134.413-.328.553-.527.188-.275.195-.556.195-.556s0-1.39-4.344-1.39c-26.08-.71-53.2 53.96-67.45 75.59-.18.24-1.16 0-1.16 0s-9.55-11.27-17.85-15.59c-.17-.09-1.12-.38-2.1-.31-.65 0-4.51.77-6.31 2.68-2.12 2.24-2.08 3.5-2.06 6.23.01.22.15 1.13.41 1.59 2.03 3.55 11.3 16.29 18.89 23.32 1.18.84 2.97 3.07 10.19 3.07z"/>
    <path fill="#225e63" d="M262.388 25.126h21.7q6.42 0 10.352 1.74 3.967 1.742 6.546 5 2.58 3.25 3.74 7.573 1.16 4.32 1.16 9.15 0 7.57-1.74 11.77-1.708 4.16-4.772 7-3.063 2.8-6.578 3.73-4.805 1.28-8.707 1.28h-21.7V25.11zm14.608 10.705v25.83h3.572q4.58 0 6.514-1 1.934-1.03 3.026-3.54 1.092-2.55 1.092-8.22 0-7.51-2.457-10.28-2.45-2.77-8.128-2.77h-3.643zm32.863 20.93l13.89-.87q.45 3.39 1.83 5.16 2.25 2.87 6.45 2.87 3.13 0 4.8-1.45 1.7-1.48 1.7-3.42 0-1.83-1.62-3.28-1.62-1.45-7.48-2.73-9.61-2.16-13.71-5.74-4.13-3.57-4.13-9.12 0-3.64 2.1-6.86 2.12-3.25 6.35-5.09 4.26-1.87 11.64-1.87 9.05 0 13.79 3.39 4.76 3.36 5.67 10.71l-13.77.81q-.55-3.19-2.33-4.64-1.75-1.45-4.84-1.45-2.55 0-3.84 1.1-1.3 1.07-1.3 2.61 0 1.13 1.06 2.03 1.03.94 4.9 1.75 9.58 2.07 13.704 4.2 4.16 2.1 6.03 5.23 1.91 3.13 1.91 7 0 4.55-2.52 8.39-2.52 3.84-7.03 5.837-4.5 1.95-11.365 1.95-12.06 0-16.707-4.64-4.65-4.64-5.26-11.8zm46.59 0l13.89-.87q.45 3.39 1.83 5.16 2.25 2.87 6.45 2.87 3.13 0 4.8-1.45 1.71-1.48 1.71-3.42 0-1.83-1.62-3.28-1.62-1.45-7.48-2.73-9.61-2.16-13.71-5.74-4.13-3.57-4.13-9.12 0-3.64 2.09-6.86 2.13-3.25 6.35-5.09 4.25-1.87 11.64-1.87 9.05 0 13.79 3.39 4.77 3.36 5.67 10.71l-13.76.8q-.56-3.19-2.33-4.64-1.74-1.45-4.84-1.45-2.55 0-3.84 1.1-1.3 1.07-1.3 2.62 0 1.13 1.06 2.03 1.03.94 4.9 1.75 9.58 2.06 13.71 4.19 4.15 2.1 6.03 5.23 1.9 3.13 1.9 7 0 4.55-2.51 8.39-2.52 3.84-7.04 5.84-4.5 1.96-11.36 1.96-12.06 0-16.71-4.65-4.64-4.64-5.26-11.8z" letter-spacing="-3.2" font-family="Arial Black"/>
  </g>
</svg>
